# Max2Obj Version 4.0 Mar 10th, 2001
#
mtllib ./kitchen_toast.mtl
s 0
g Cylinder_4
usemtl toast
v  173.609756 11.474144 -32.865532
v  173.609756 11.474144 -33.751709
v  173.609756 11.681729 -33.765472
v  173.609756 11.969522 -33.789459
v  173.609756 12.316868 -33.859051
v  173.609756 12.412783 -33.797192
v  173.609756 12.454827 -33.676315
v  173.609756 12.361924 -33.475338
v  173.609756 12.307862 -33.166718
v  173.609756 12.302733 -32.865532
v  173.609756 12.311961 -32.572155
v  173.609756 12.361657 -32.294292
v  173.609756 12.402295 -32.099987
v  173.609756 12.380429 -31.949001
v  173.609756 12.283898 -31.880882
v  173.609756 12.072762 -31.906771
v  173.609756 11.785972 -31.919258
v  173.609756 11.488650 -31.920748
v  173.609756 11.282599 -31.906605
v  173.609756 10.927879 -31.908112
v  173.609756 10.605057 -31.883066
v  173.609756 10.538716 -31.930033
v  173.609756 10.516525 -32.032501
v  173.609756 10.538505 -32.353371
v  173.609756 10.539828 -32.669598
v  173.609756 10.545853 -32.865532
v  173.609756 10.537450 -33.066784
v  173.609756 10.549153 -33.362518
v  173.609756 10.535991 -33.671196
v  173.609756 10.551796 -33.770004
v  173.609756 10.688153 -33.805840
v  173.609756 10.965322 -33.781071
v  173.609756 11.264865 -33.762634
v  173.766846 11.474144 -33.751709
v  173.766846 11.681729 -33.765472
v  173.766846 11.969522 -33.789459
v  173.766846 12.316868 -33.859051
v  173.766846 12.412783 -33.797192
v  173.766846 12.454827 -33.676315
v  173.766846 12.361924 -33.475338
v  173.766846 12.307862 -33.166718
v  173.766846 12.302733 -32.865532
v  173.766846 12.311961 -32.572155
v  173.766846 12.361657 -32.294292
v  173.766846 12.402295 -32.099987
v  173.766846 12.380429 -31.949001
v  173.766846 12.283898 -31.880882
v  173.766846 12.072762 -31.906771
v  173.766846 11.785972 -31.919258
v  173.766846 11.488650 -31.920748
v  173.766846 11.282598 -31.906605
v  173.766846 10.927879 -31.908112
v  173.766846 10.605057 -31.883066
v  173.766846 10.538716 -31.930033
v  173.766846 10.516525 -32.032501
v  173.766846 10.538505 -32.353371
v  173.766846 10.539828 -32.669598
v  173.766846 10.545853 -32.865532
v  173.766846 10.537450 -33.066784
v  173.766846 10.549153 -33.362518
v  173.766846 10.535991 -33.671196
v  173.766846 10.551796 -33.770004
v  173.766846 10.688153 -33.805840
v  173.766846 10.965322 -33.781071
v  173.766846 11.264865 -33.762634
v  173.766846 11.474144 -32.865532
# 66 vertices

vt  0.954930 0.607100 0.000000
vt  0.947980 0.500000 0.000000
vt  0.500000 0.500000 0.000000
vt  0.967060 0.755570 0.000000
vt  1.002240 0.934770 0.000000
vt  0.970970 0.984260 0.000000
vt  0.909860 1.005950 0.000000
vt  0.808270 0.958020 0.000000
vt  0.652250 0.930130 0.000000
vt  0.500000 0.927480 0.000000
vt  0.351690 0.932240 0.000000
vt  0.211230 0.957880 0.000000
vt  0.113000 0.978850 0.000000
vt  0.036680 0.967570 0.000000
vt  0.002240 0.917760 0.000000
vt  0.015330 0.808830 0.000000
vt  0.021640 0.660880 0.000000
vt  0.022400 0.507480 0.000000
vt  0.015240 0.401180 0.000000
vt  0.016010 0.218170 0.000000
vt  0.003350 0.051620 0.000000
vt  0.027090 0.017400 0.000000
vt  0.078890 0.005950 0.000000
vt  0.241090 0.017290 0.000000
vt  0.400950 0.017970 0.000000
vt  0.500000 0.021080 0.000000
vt  0.601740 0.016740 0.000000
vt  0.751240 0.022780 0.000000
vt  0.907280 0.015990 0.000000
vt  0.957230 0.024150 0.000000
vt  0.975340 0.094490 0.000000
vt  0.962820 0.237490 0.000000
vt  0.953500 0.392030 0.000000
vt  0.500000 0.500000 0.000000
vt  0.947980 0.500000 0.000000
vt  0.954930 0.607100 0.000000
vt  0.967060 0.755570 0.000000
vt  1.002240 0.934770 0.000000
vt  0.970970 0.984260 0.000000
vt  0.909860 1.005950 0.000000
vt  0.808270 0.958020 0.000000
vt  0.652250 0.930130 0.000000
vt  0.500000 0.927480 0.000000
vt  0.351690 0.932240 0.000000
vt  0.211230 0.957880 0.000000
vt  0.113000 0.978850 0.000000
vt  0.036680 0.967570 0.000000
vt  0.002240 0.917760 0.000000
vt  0.015330 0.808830 0.000000
vt  0.021640 0.660880 0.000000
vt  0.022400 0.507480 0.000000
vt  0.015240 0.401180 0.000000
vt  0.016010 0.218170 0.000000
vt  0.003350 0.051620 0.000000
vt  0.027090 0.017400 0.000000
vt  0.078890 0.005950 0.000000
vt  0.241090 0.017290 0.000000
vt  0.400950 0.017970 0.000000
vt  0.500000 0.021080 0.000000
vt  0.601740 0.016740 0.000000
vt  0.751240 0.022780 0.000000
vt  0.907280 0.015990 0.000000
vt  0.957230 0.024150 0.000000
vt  0.975340 0.094490 0.000000
vt  0.962820 0.237490 0.000000
vt  0.953500 0.392030 0.000000
# 66 texture vertices

vn  -0.196366 0.000000 0.000000
vn  -0.196366 0.000000 0.000000
vn  -0.196366 0.000000 0.000000
vn  -0.196366 0.000000 0.000000
vn  -0.196366 0.000000 0.000000
vn  -0.196366 0.000000 0.000000
vn  -0.196366 0.000000 0.000000
vn  -0.196366 0.000000 0.000000
vn  -0.196366 0.000000 0.000000
vn  -0.196366 0.000000 0.000000
vn  -0.196366 0.000000 0.000000
vn  -0.196366 0.000000 0.000000
vn  -0.196366 0.000000 0.000000
vn  -0.196366 0.000000 0.000000
vn  -0.196366 0.000000 0.000000
vn  -0.196366 0.000000 0.000000
vn  -0.196366 0.000000 0.000000
vn  -0.196366 0.000000 0.000000
vn  -0.196366 0.000000 0.000000
vn  -0.196366 0.000000 0.000000
vn  -0.196366 0.000000 0.000000
vn  -0.196366 0.000000 0.000000
vn  -0.196366 0.000000 0.000000
vn  -0.196366 0.000000 0.000000
vn  -0.196366 0.000000 0.000000
vn  -0.196366 0.000000 0.000000
vn  -0.196366 0.000000 0.000000
vn  -0.196366 0.000000 0.000000
vn  -0.196366 0.000000 0.000000
vn  -0.196366 0.000000 0.000000
vn  -0.196366 0.000000 0.000000
vn  -0.196366 0.000000 0.000000
vn  -0.196366 0.000000 0.000000
vn  0.196366 -0.000000 -0.000000
vn  0.196366 -0.000000 -0.000000
vn  0.196366 -0.000000 -0.000000
vn  0.196366 -0.000000 -0.000000
vn  0.196366 -0.000000 -0.000000
vn  0.196366 -0.000000 -0.000000
vn  0.196366 -0.000000 -0.000000
vn  0.196366 -0.000000 -0.000000
vn  0.196366 -0.000000 -0.000000
vn  0.196366 -0.000000 -0.000000
vn  0.196366 -0.000000 -0.000000
vn  0.196366 -0.000000 -0.000000
vn  0.196366 -0.000000 -0.000000
vn  0.196366 -0.000000 -0.000000
vn  0.196366 -0.000000 -0.000000
vn  0.196366 -0.000000 -0.000000
vn  0.196366 -0.000000 -0.000000
vn  0.196366 -0.000000 -0.000000
vn  0.196366 -0.000000 -0.000000
vn  0.196366 -0.000000 -0.000000
vn  0.196366 -0.000000 -0.000000
vn  0.196366 -0.000000 -0.000000
vn  0.196366 -0.000000 -0.000000
vn  0.196366 -0.000000 -0.000000
vn  0.196366 -0.000000 -0.000000
vn  0.196366 -0.000000 -0.000000
vn  0.196366 -0.000000 -0.000000
vn  0.196366 -0.000000 -0.000000
vn  0.196366 -0.000000 -0.000000
vn  0.196366 -0.000000 -0.000000
vn  0.196366 -0.000000 -0.000000
vn  0.196366 -0.000000 -0.000000
vn  0.196366 -0.000000 -0.000000
# 66 vertex normals

g Cylinder_4
s 1
f 3/1/3 2/2/2 1/3/1
f 4/4/4 3/1/3 1/3/1
f 5/5/5 4/4/4 1/3/1
f 6/6/6 5/5/5 1/3/1
f 7/7/7 6/6/6 1/3/1
f 8/8/8 7/7/7 1/3/1
f 9/9/9 8/8/8 1/3/1
f 10/10/10 9/9/9 1/3/1
f 11/11/11 10/10/10 1/3/1
f 12/12/12 11/11/11 1/3/1
f 13/13/13 12/12/12 1/3/1
f 14/14/14 13/13/13 1/3/1
f 15/15/15 14/14/14 1/3/1
f 16/16/16 15/15/15 1/3/1
f 17/17/17 16/16/16 1/3/1
f 18/18/18 17/17/17 1/3/1
f 19/19/19 18/18/18 1/3/1
f 20/20/20 19/19/19 1/3/1
f 21/21/21 20/20/20 1/3/1
f 22/22/22 21/21/21 1/3/1
f 23/23/23 22/22/22 1/3/1
f 24/24/24 23/23/23 1/3/1
f 25/25/25 24/24/24 1/3/1
f 26/26/26 25/25/25 1/3/1
f 27/27/27 26/26/26 1/3/1
f 28/28/28 27/27/27 1/3/1
f 29/29/29 28/28/28 1/3/1
f 30/30/30 29/29/29 1/3/1
f 31/31/31 30/30/30 1/3/1
f 32/32/32 31/31/31 1/3/1
f 33/33/33 32/32/32 1/3/1
f 2/2/2 33/33/33 1/3/1
f 66/34/66 34/35/34 35/36/35
f 66/34/66 35/36/35 36/37/36
f 66/34/66 36/37/36 37/38/37
f 66/34/66 37/38/37 38/39/38
f 66/34/66 38/39/38 39/40/39
f 66/34/66 39/40/39 40/41/40
f 66/34/66 40/41/40 41/42/41
f 66/34/66 41/42/41 42/43/42
f 66/34/66 42/43/42 43/44/43
f 66/34/66 43/44/43 44/45/44
f 66/34/66 44/45/44 45/46/45
f 66/34/66 45/46/45 46/47/46
f 66/34/66 46/47/46 47/48/47
f 66/34/66 47/48/47 48/49/48
f 66/34/66 48/49/48 49/50/49
f 66/34/66 49/50/49 50/51/50
f 66/34/66 50/51/50 51/52/51
f 66/34/66 51/52/51 52/53/52
f 66/34/66 52/53/52 53/54/53
f 66/34/66 53/54/53 54/55/54
f 66/34/66 54/55/54 55/56/55
f 66/34/66 55/56/55 56/57/56
f 66/34/66 56/57/56 57/58/57
f 66/34/66 57/58/57 58/59/58
f 66/34/66 58/59/58 59/60/59
f 66/34/66 59/60/59 60/61/60
f 66/34/66 60/61/60 61/62/61
f 66/34/66 61/62/61 62/63/62
f 66/34/66 62/63/62 63/64/63
f 66/34/66 63/64/63 64/65/64
f 66/34/66 64/65/64 65/66/65
f 66/34/66 65/66/65 34/35/34
# 64 faces
s 1
g Cylinder_4_1
usemtl marron
v  173.609756 11.474144 -33.751709
v  173.609756 11.681729 -33.765472
v  173.609756 11.969522 -33.789459
v  173.609756 12.316868 -33.859051
v  173.609756 12.412783 -33.797192
v  173.609756 12.454827 -33.676315
v  173.609756 12.361924 -33.475338
v  173.609756 12.307862 -33.166718
v  173.609756 12.302733 -32.865532
v  173.609756 12.311961 -32.572155
v  173.609756 12.361657 -32.294292
v  173.609756 12.402295 -32.099987
v  173.609756 12.380429 -31.949001
v  173.609756 12.283898 -31.880882
v  173.609756 12.072762 -31.906771
v  173.609756 11.785972 -31.919258
v  173.609756 11.488650 -31.920748
v  173.609756 11.282599 -31.906605
v  173.609756 10.927879 -31.908112
v  173.609756 10.605057 -31.883066
v  173.609756 10.538716 -31.930033
v  173.609756 10.516525 -32.032501
v  173.609756 10.538505 -32.353371
v  173.609756 10.539828 -32.669598
v  173.609756 10.545853 -32.865532
v  173.609756 10.537450 -33.066784
v  173.609756 10.549153 -33.362518
v  173.609756 10.535991 -33.671196
v  173.609756 10.551796 -33.770004
v  173.609756 10.688153 -33.805840
v  173.609756 10.965322 -33.781071
v  173.609756 11.264865 -33.762634
v  173.766846 11.474144 -33.751709
v  173.766846 11.681729 -33.765472
v  173.766846 11.969522 -33.789459
v  173.766846 12.316868 -33.859051
v  173.766846 12.412783 -33.797192
v  173.766846 12.454827 -33.676315
v  173.766846 12.361924 -33.475338
v  173.766846 12.307862 -33.166718
v  173.766846 12.302733 -32.865532
v  173.766846 12.311961 -32.572155
v  173.766846 12.361657 -32.294292
v  173.766846 12.402295 -32.099987
v  173.766846 12.380429 -31.949001
v  173.766846 12.283898 -31.880882
v  173.766846 12.072762 -31.906771
v  173.766846 11.785972 -31.919258
v  173.766846 11.488650 -31.920748
v  173.766846 11.282598 -31.906605
v  173.766846 10.927879 -31.908112
v  173.766846 10.605057 -31.883066
v  173.766846 10.538716 -31.930033
v  173.766846 10.516525 -32.032501
v  173.766846 10.538505 -32.353371
v  173.766846 10.539828 -32.669598
v  173.766846 10.545853 -32.865532
v  173.766846 10.537450 -33.066784
v  173.766846 10.549153 -33.362518
v  173.766846 10.535991 -33.671196
v  173.766846 10.551796 -33.770004
v  173.766846 10.688153 -33.805840
v  173.766846 10.965322 -33.781071
v  173.766846 11.264865 -33.762634
# 64 vertices

vn  -0.000000 -0.001379 -0.196361
vn  -0.000000 -0.014651 -0.195819
vn  -0.000000 -0.027489 -0.194433
vn  -0.000000 0.036610 -0.192923
vn  0.000000 0.154359 -0.121380
vn  0.000000 0.196129 0.009644
vn  0.000000 0.187409 0.058631
vn  0.000000 0.195477 0.018670
vn  0.000000 0.196361 -0.001415
vn  0.000000 0.195301 -0.020427
vn  0.000000 0.192774 -0.037389
vn  0.000000 0.196271 -0.006121
vn  0.000000 0.167402 0.102646
vn  0.000000 0.047869 0.190442
vn  0.000000 -0.016233 0.195694
vn  0.000000 -0.004764 0.196308
vn  0.000000 0.006236 0.196267
vn  0.000000 0.006311 0.196265
vn  0.000000 0.007183 0.196235
vn  0.000000 -0.052247 0.189288
vn  -0.000000 -0.163821 0.108271
vn  -0.000000 -0.195851 0.014212
vn  -0.000000 -0.196237 -0.007124
vn  -0.000000 -0.196336 -0.003429
vn  -0.000000 -0.196363 0.001079
vn  -0.000000 -0.196366 0.000213
vn  -0.000000 -0.196366 0.000301
vn  -0.000000 -0.196036 -0.011383
vn  -0.000000 -0.145512 -0.131856
vn  -0.000000 -0.016463 -0.195675
vn  -0.000000 0.014773 -0.195810
vn  -0.000000 0.011150 -0.196049
vn  -0.000000 -0.001379 -0.196361
vn  -0.000000 -0.014651 -0.195819
vn  -0.000000 -0.027489 -0.194433
vn  -0.000000 0.036610 -0.192923
vn  0.000000 0.154359 -0.121380
vn  0.000000 0.196129 0.009644
vn  0.000000 0.187409 0.058631
vn  0.000000 0.195477 0.018670
vn  0.000000 0.196361 -0.001415
vn  0.000000 0.195301 -0.020427
vn  0.000000 0.192774 -0.037389
vn  0.000000 0.196271 -0.006121
vn  0.000000 0.167402 0.102646
vn  0.000000 0.047869 0.190442
vn  0.000000 -0.016233 0.195694
vn  0.000000 -0.004764 0.196308
vn  0.000000 0.006236 0.196267
vn  0.000000 0.006311 0.196265
vn  0.000000 0.007183 0.196235
vn  0.000000 -0.052247 0.189288
vn  -0.000000 -0.163821 0.108271
vn  -0.000000 -0.195851 0.014212
vn  -0.000000 -0.196237 -0.007124
vn  -0.000000 -0.196336 -0.003429
vn  -0.000000 -0.196363 0.001079
vn  -0.000000 -0.196366 0.000213
vn  -0.000000 -0.196366 0.000301
vn  -0.000000 -0.196036 -0.011383
vn  -0.000000 -0.145512 -0.131856
vn  -0.000000 -0.016463 -0.195675
vn  -0.000000 0.014773 -0.195810
vn  -0.000000 0.011150 -0.196049
# 64 vertex normals

g Cylinder_4_1
s 2
f 99//99 67//67 68//68
f 100//100 68//68 69//69
f 101//101 69//69 70//70
f 102//102 70//70 71//71
f 103//103 71//71 72//72
f 104//104 72//72 73//73
f 105//105 73//73 74//74
f 106//106 74//74 75//75
f 107//107 75//75 76//76
f 108//108 76//76 77//77
f 109//109 77//77 78//78
f 110//110 78//78 79//79
f 111//111 79//79 80//80
f 112//112 80//80 81//81
f 113//113 81//81 82//82
f 114//114 82//82 83//83
f 115//115 83//83 84//84
f 116//116 84//84 85//85
f 117//117 85//85 86//86
f 118//118 86//86 87//87
f 119//119 87//87 88//88
f 120//120 88//88 89//89
f 121//121 89//89 90//90
f 122//122 90//90 91//91
f 123//123 91//91 92//92
f 124//124 92//92 93//93
f 125//125 93//93 94//94
f 126//126 94//94 95//95
f 127//127 95//95 96//96
f 128//128 96//96 97//97
f 129//129 97//97 98//98
f 130//130 98//98 67//67
f 99//99 68//68 100//100
f 100//100 69//69 101//101
f 101//101 70//70 102//102
f 102//102 71//71 103//103
f 103//103 72//72 104//104
f 104//104 73//73 105//105
f 105//105 74//74 106//106
f 106//106 75//75 107//107
f 107//107 76//76 108//108
f 108//108 77//77 109//109
f 109//109 78//78 110//110
f 110//110 79//79 111//111
f 111//111 80//80 112//112
f 112//112 81//81 113//113
f 113//113 82//82 114//114
f 114//114 83//83 115//115
f 115//115 84//84 116//116
f 116//116 85//85 117//117
f 117//117 86//86 118//118
f 118//118 87//87 119//119
f 119//119 88//88 120//120
f 120//120 89//89 121//121
f 121//121 90//90 122//122
f 122//122 91//91 123//123
f 123//123 92//92 124//124
f 124//124 93//93 125//125
f 125//125 94//94 126//126
f 126//126 95//95 127//127
f 127//127 96//96 128//128
f 128//128 97//97 129//129
f 129//129 98//98 130//130
f 130//130 67//67 99//99
# 64 faces

g
